/* XPM */
static char * red_glasses_xpm[] = {
"32 32 539 2",
"  	c None",
". 	c #FBEB53",
"+ 	c #FEF261",
"@ 	c #FEF771",
"# 	c #FFF777",
"$ 	c #FFEF70",
"% 	c #FFEE68",
"& 	c #FFEA63",
"* 	c #FFE34C",
"= 	c #F6D234",
"- 	c #E6BB1C",
"; 	c #FDFFA8",
"> 	c #FEFFB7",
", 	c #FEFEA0",
"' 	c #FDFF8C",
") 	c #FDFE80",
"! 	c #FFF577",
"~ 	c #FFED70",
"{ 	c #FFE967",
"] 	c #FFE660",
"^ 	c #FFE55B",
"/ 	c #FFE557",
"( 	c #FCE357",
"_ 	c #FCDF52",
": 	c #ECC42A",
"< 	c #FEFFDE",
"[ 	c #FEFFFF",
"} 	c #FDFFE6",
"| 	c #FEFFC6",
"1 	c #FEFFAB",
"2 	c #FEFF95",
"3 	c #FDFF85",
"4 	c #FFF879",
"5 	c #FFEC71",
"6 	c #FFEA66",
"7 	c #FFE65E",
"8 	c #FEE558",
"9 	c #FEE456",
"0 	c #FBDF54",
"a 	c #F8DB53",
"b 	c #F6D953",
"c 	c #F5D84E",
"d 	c #DEB11B",
"e 	c #FEFFFB",
"f 	c #FEFFF8",
"g 	c #FEFFD6",
"h 	c #FEFFB8",
"i 	c #FEFF9E",
"j 	c #FDFF8B",
"k 	c #FEFA7D",
"l 	c #FFEE73",
"m 	c #FFE966",
"n 	c #FCE255",
"o 	c #F9DD54",
"p 	c #F7D952",
"q 	c #F4D751",
"r 	c #F2D650",
"s 	c #EFD452",
"t 	c #E8C230",
"u 	c #FEFFFC",
"v 	c #FEFFFE",
"w 	c #FFFFFF",
"x 	c #FDFFE7",
"y 	c #FEFFC5",
"z 	c #FEFFA8",
"A 	c #FEFE92",
"B 	c #FEFC81",
"C 	c #FFEF75",
"D 	c #FFE65B",
"E 	c #FADF55",
"F 	c #F8DA52",
"G 	c #F5D952",
"H 	c #F2D751",
"I 	c #F0D450",
"J 	c #EED24F",
"K 	c #ECCF4F",
"L 	c #E6C032",
"M 	c #FEFFF5",
"N 	c #FEFFF4",
"O 	c #FEFFD1",
"P 	c #FEFFB2",
"Q 	c #FEFF99",
"R 	c #FEFE85",
"S 	c #FFF078",
"T 	c #FFEB67",
"U 	c #FDE356",
"V 	c #F9DC54",
"W 	c #F6D952",
"X 	c #F1D550",
"Y 	c #EFD350",
"Z 	c #ECD04E",
"` 	c #EBCC4D",
" .	c #E8C94D",
"..	c #E1BB2E",
"+.	c #FDFFBA",
"@.	c #FFFFFE",
"#.	c #FEFFF9",
"$.	c #FEFFDA",
"%.	c #FEFFBA",
"&.	c #FEFF9F",
"*.	c #FEFF8A",
"=.	c #FFF27A",
"-.	c #FFEA69",
";.	c #FFE65A",
">.	c #FBDF56",
",.	c #F4D851",
"'.	c #EBCE4D",
").	c #E9CA4C",
"!.	c #E8C94B",
"~.	c #E6C74B",
"{.	c #CFA419",
"].	c #FDFED9",
"^.	c #FEFFF0",
"/.	c #FEFFFA",
"(.	c #FEFFDD",
"_.	c #FEFFBF",
":.	c #FEFFA3",
"<.	c #FDFF8D",
"[.	c #FFF37C",
"}.	c #FFE969",
"|.	c #FEE55A",
"1.	c #F9DD55",
"2.	c #F3D750",
"3.	c #ECCF4E",
"4.	c #EACA4C",
"5.	c #E8C94C",
"6.	c #E6C74A",
"7.	c #E4C54B",
"8.	c #E3C346",
"9.	c #FFFF82",
"0.	c #FEFFBD",
"a.	c #FDFFD0",
"b.	c #FEFFE3",
"c.	c #FEFFFD",
"d.	c #FDFFF0",
"e.	c #FEFFD9",
"f.	c #FEFFA4",
"g.	c #FDFF8E",
"h.	c #FFF37D",
"i.	c #FDE35A",
"j.	c #F8DB55",
"k.	c #F5D851",
"l.	c #EDD150",
"m.	c #ECCE4D",
"n.	c #EBCB4D",
"o.	c #E9C94C",
"p.	c #E4C64A",
"q.	c #E2C349",
"r.	c #E0C04A",
"s.	c #D6AD23",
"t.	c #0A070C",
"u.	c #FFFF9B",
"v.	c #FFFFA8",
"w.	c #FFFFB7",
"x.	c #FFFFC7",
"y.	c #FFFFD7",
"z.	c #FFFFE4",
"A.	c #FFFFEC",
"B.	c #FFFFEB",
"C.	c #FFFFE2",
"D.	c #FFFFD1",
"E.	c #FFFFBC",
"F.	c #FDFEA3",
"G.	c #FEFF8D",
"H.	c #FFF67F",
"I.	c #FFED69",
"J.	c #FEE45A",
"K.	c #F7DB55",
"L.	c #F5DA53",
"M.	c #F3D753",
"N.	c #F1D651",
"O.	c #F0D14F",
"P.	c #EECF4F",
"Q.	c #ECCD4E",
"R.	c #EACB4D",
"S.	c #E7C94C",
"T.	c #E4C64B",
"U.	c #E3C34B",
"V.	c #E1C046",
"W.	c #FFDF38",
"X.	c #AC9E4C",
"Y.	c #996138",
"Z.	c #A16C45",
"`.	c #AA7552",
" +	c #B58160",
".+	c #BD8C6D",
"++	c #C49176",
"@+	c #C6947A",
"#+	c #C49177",
"$+	c #BC8A6C",
"%+	c #A9825C",
"&+	c #B7A863",
"*+	c #DCCD5F",
"=+	c #9E875F",
"-+	c #AC946B",
";+	c #A08430",
">+	c #9D8328",
",+	c #6F4D11",
"'+	c #6C380E",
")+	c #6B380E",
"!+	c #6A380D",
"~+	c #69390D",
"{+	c #693B0D",
"]+	c #68390D",
"^+	c #67360C",
"/+	c #67340C",
"(+	c #6A340D",
"_+	c #6A4A17",
":+	c #B3870D",
"<+	c #29120E",
"[+	c #E1515E",
"}+	c #EC5963",
"|+	c #C12229",
"1+	c #C92B35",
"2+	c #D03841",
"3+	c #D6434F",
"4+	c #DD4C57",
"5+	c #E1515C",
"6+	c #DF515C",
"7+	c #D74A55",
"8+	c #C93D47",
"9+	c #AD2B36",
"0+	c #47292E",
"a+	c #AC924C",
"b+	c #A88C3A",
"c+	c #473833",
"d+	c #88252E",
"e+	c #CE525F",
"f+	c #8D090C",
"g+	c #87080B",
"h+	c #88080B",
"i+	c #86070A",
"j+	c #85070A",
"k+	c #84070A",
"l+	c #83070A",
"m+	c #8B080B",
"n+	c #90070A",
"o+	c #2B0104",
"p+	c #A48323",
"q+	c #C92D35",
"r+	c #D1363F",
"s+	c #BA1820",
"t+	c #C11E26",
"u+	c #CA242C",
"v+	c #D02C34",
"w+	c #D4333D",
"x+	c #D63944",
"y+	c #D33A44",
"z+	c #CE3641",
"A+	c #C12D37",
"B+	c #A3222B",
"C+	c #87652C",
"D+	c #FFED6A",
"E+	c #FBE25C",
"F+	c #AA8E2B",
"G+	c #801924",
"H+	c #B42931",
"I+	c #91090C",
"J+	c #91080B",
"K+	c #92080B",
"L+	c #8F080B",
"M+	c #89080B",
"N+	c #8C070A",
"O+	c #93080B",
"P+	c #572509",
"Q+	c #FFF268",
"R+	c #654313",
"S+	c #69040D",
"T+	c #9E1014",
"U+	c #AA1419",
"V+	c #B0181E",
"W+	c #B61C23",
"X+	c #BA2028",
"Y+	c #BB2329",
"Z+	c #B9242B",
"`+	c #AF222A",
" @	c #7F1723",
".@	c #5F381D",
"+@	c #FBE259",
"@@	c #FCE35D",
"#@	c #F6DA56",
"$@	c #F5D950",
"%@	c #664A12",
"&@	c #490004",
"*@	c #7C060A",
"=@	c #86080B",
"-@	c #85080B",
";@	c #81070A",
">@	c #7D070A",
",@	c #610107",
"'@	c #3A1105",
")@	c #C9AA35",
"!@	c #FFED67",
"~@	c #FFF165",
"{@	c #CCB33F",
"]@	c #83631E",
"^@	c #5C250F",
"/@	c #661B12",
"(@	c #5D1111",
"_@	c #5E0F13",
":@	c #6D2119",
"<@	c #632619",
"[@	c #876226",
"}@	c #C5AD40",
"|@	c #FFEC60",
"1@	c #F6DA57",
"2@	c #EED151",
"3@	c #F1D14E",
"4@	c #C1A333",
"5@	c #745717",
"6@	c #4E2107",
"7@	c #4F0F06",
"8@	c #460804",
"9@	c #410003",
"0@	c #4E0F06",
"a@	c #3F0D05",
"b@	c #603E0E",
"c@	c #997D23",
"d@	c #DBB840",
"e@	c #D6B543",
"f@	c #FFE961",
"g@	c #FEE65E",
"h@	c #FFEE55",
"i@	c #FFEF52",
"j@	c #FFE553",
"k@	c #FFE355",
"l@	c #FFEE53",
"m@	c #FFED56",
"n@	c #FFE85E",
"o@	c #FCE25B",
"p@	c #F9DE59",
"q@	c #F5D955",
"r@	c #F1D653",
"s@	c #E7C84D",
"t@	c #E8C744",
"u@	c #E9C943",
"v@	c #E0BE40",
"w@	c #DAB841",
"x@	c #E5C23D",
"y@	c #E3C03C",
"z@	c #DCBB48",
"A@	c #D8B644",
"B@	c #D5B444",
"C@	c #D6B442",
"D@	c #FFE85B",
"E@	c #FFE558",
"F@	c #FEE556",
"G@	c #FCE156",
"H@	c #FADF58",
"I@	c #FADE57",
"J@	c #F8DC57",
"K@	c #F7DB56",
"L@	c #F0D451",
"M@	c #EDD050",
"N@	c #E5C64B",
"O@	c #E3C54A",
"P@	c #E1C14A",
"Q@	c #DFBF48",
"R@	c #DDBD48",
"S@	c #DCBC47",
"T@	c #DBBA45",
"U@	c #DAB845",
"V@	c #D7B644",
"W@	c #D6B445",
"X@	c #D4B443",
"Y@	c #D3B342",
"Z@	c #FFDF45",
"`@	c #FDE455",
" #	c #FCE155",
".#	c #FAE055",
"+#	c #F7DA53",
"@#	c #F5D953",
"##	c #F5D852",
"$#	c #F2D652",
"%#	c #F1D551",
"&#	c #EED250",
"*#	c #EDCF4F",
"=#	c #E6C84B",
"-#	c #E3C44A",
";#	c #DBBA46",
">#	c #D6B545",
",#	c #D4B343",
"'#	c #D3B343",
")#	c #D0AA34",
"!#	c #F3CD32",
"~#	c #FCE154",
"{#	c #FADF54",
"]#	c #EDD14F",
"^#	c #ECCE4E",
"/#	c #E7C84B",
"(#	c #E5C54B",
"_#	c #E1C04A",
":#	c #DAB945",
"<#	c #D6B544",
"[#	c #D3B243",
"}#	c #D2AF43",
"|#	c #C59D25",
"1#	c #E1B51B",
"2#	c #F9DE55",
"3#	c #E8C942",
"4#	c #D8BA3B",
"5#	c #F2D651",
"6#	c #EFD351",
"7#	c #E1C24A",
"8#	c #E0BE49",
"9#	c #DEBD48",
"0#	c #DDBC47",
"a#	c #DCBB46",
"b#	c #D8B744",
"c#	c #D7B545",
"d#	c #D2B040",
"e#	c #AD8A25",
"f#	c #D2B143",
"g#	c #D1AE42",
"h#	c #B68B14",
"i#	c #F8DA4F",
"j#	c #F2D34C",
"k#	c #A5841B",
"l#	c #C4A735",
"m#	c #BD9F34",
"n#	c #BC9E34",
"o#	c #B99932",
"p#	c #BA9B34",
"q#	c #B99A33",
"r#	c #B69732",
"s#	c #B59430",
"t#	c #B08F2E",
"u#	c #B29130",
"v#	c #AD8E2E",
"w#	c #AC8A2C",
"x#	c #AB8C2D",
"y#	c #AA8B2D",
"z#	c #AB8A2D",
"A#	c #A98A2D",
"B#	c #906C14",
"C#	c #CCA836",
"D#	c #D1AE41",
"E#	c #CFAD3F",
"F#	c #E8C028",
"G#	c #F3D751",
"H#	c #F0D34D",
"I#	c #E8C73E",
"J#	c #E3BF3B",
"K#	c #E3C143",
"L#	c #E2C043",
"M#	c #E1BF44",
"N#	c #DFBD46",
"O#	c #DFBF51",
"P#	c #DEC05E",
"Q#	c #DDBF66",
"R#	c #DDBF6D",
"S#	c #DCBF71",
"T#	c #DABE70",
"U#	c #D8BB6A",
"V#	c #D6B657",
"W#	c #D4B352",
"X#	c #D1AC3F",
"Y#	c #CCA731",
"Z#	c #CCA732",
"`#	c #CAA532",
" $	c #D0AC3A",
".$	c #CFAE43",
"+$	c #C1971F",
"@$	c #F2D44C",
"#$	c #EBCD4D",
"$$	c #E5C54A",
"%$	c #E3C449",
"&$	c #E1C048",
"*$	c #E0BF47",
"=$	c #DEBD45",
"-$	c #DCBC45",
";$	c #DCBA43",
">$	c #DBB942",
",$	c #D9B844",
"'$	c #D8B642",
")$	c #D2B043",
"!$	c #D1AD41",
"~$	c #CFAD42",
"{$	c #CEAC3E",
"]$	c #DBAF1A",
"^$	c #ECD150",
"/$	c #EBCB4C",
"($	c #E2C34A",
"_$	c #E0C14A",
":$	c #DFBE48",
"<$	c #DCBC48",
"[$	c #D9B745",
"}$	c #D7B544",
"|$	c #CEAC42",
"1$	c #B98E15",
"2$	c #E4BD2E",
"3$	c #E9CA4D",
"4$	c #E2C249",
"5$	c #E0BF49",
"6$	c #DCBB47",
"7$	c #DBBB46",
"8$	c #DBB945",
"9$	c #D8B745",
"0$	c #D5B445",
"a$	c #D1B043",
"b$	c #CEAE43",
"c$	c #CDAC41",
"d$	c #C59C27",
"e$	c #E3BD31",
"f$	c #E5C64A",
"g$	c #DEBE48",
"h$	c #DDBC48",
"i$	c #D9B744",
"j$	c #D1AF43",
"k$	c #C8A02A",
"l$	c #DDB72C",
"m$	c #E2C54B",
"n$	c #DFBE47",
"o$	c #D2B244",
"p$	c #D1AF42",
"q$	c #D0AE41",
"r$	c #CEAD42",
"s$	c #CDA117",
"t$	c #E0BF45",
"u$	c #DAB946",
"v$	c #D8B844",
"w$	c #D0AD42",
"x$	c #CEAB3D",
"y$	c #B98D15",
"z$	c #D1A721",
"A$	c #DDBB42",
"B$	c #DBBA47",
"C$	c #DAB846",
"D$	c #D5B544",
"E$	c #C1961F",
"F$	c #C09415",
"G$	c #CCA326",
"H$	c #D5AE34",
"I$	c #D6B643",
"J$	c #D5B542",
"K$	c #D2B141",
"L$	c #CFA832",
"M$	c #C39C25",
"N$	c #B68A14",
"                                                                ",
"                      . + @ # $ % & * = -                       ",
"                  ; > , ' ) ! ~ { ] ^ / ( _ :                   ",
"              < [ } | 1 2 3 4 5 6 7 8 9 0 a b c d               ",
"            e [ [ f g h i j k l m 7 / n o p q r s t             ",
"          u v w w w x y z A B C { D 9 E F G H I J K L           ",
"        M v w w w w N O P Q R S T D U V W q X Y Z `  ...        ",
"      +.w @.w w w w #.$.%.&.*.=.-.;.>.a ,.r Y Z '.).!.~.{.      ",
"      ].^.v w @.w [ /.(._.:.<.[.}.|.1.W 2.I J 3.4.5.6.7.8.      ",
"    9.0.a.b.N c.@.c.d.e._.f.g.h.}.i.j.k.X l.m.n.o.6.p.q.r.s.    ",
"t.  u.v.w.x.y.z.A.B.C.D.E.F.G.H.I.J.K.L.M.N.O.P.Q.R.S.T.U.V.    ",
"  W.X.Y.Z.`. +.+++@+#+$+%+&+*+=+-+;+>+,+'+)+!+~+{+]+^+/+(+_+:+  ",
"  <+[+}+|+1+2+3+4+5+6+7+8+9+0+a+b+c+d+e+f+g+h+i+j+k+l+l+m+n+o+  ",
"  p+q+r+s+t+u+v+w+x+y+z+A+B+C+D+E+F+G+H+I+J+K+K+J+L+m+M+N+O+P+  ",
"  Q+R+S+T+U+V+W+X+Y+Z+`+ @.@+@@@#@$@%@&@*@=@h+h+g+-@;@>@,@'@)@  ",
"  !@~@{@]@^@/@(@_@:@<@[@}@|@E+1@M.2@3@4@5@6@7@8@9@0@a@b@c@d@e@  ",
"  f@] g@f@h@i@j@k@l@m@n@o@p@q@r@2@Q.o.~.s@t@u@v@w@x@y@z@A@B@C@  ",
"  D@;.E@/ F@9 G@H@I@J@K@q@M.L@M@Q.o.~.N@O@P@Q@R@S@T@U@V@W@X@Y@  ",
"  Z@9 `@ #.#o a +#@###$#%#&#*#` 5.=#T.-#P@Q@R@S@;#U@A@>#,#'#)#  ",
"  !#~#{#o a +###,.r L@&#]#^#R.5./#(#-#_#Q@R@S@T@:#A@<#>#[#}#|#  ",
"  1#2#F W 3#4#5#X 6#J Z ` 4.5./#T.-#7#8#9#0#a#:#b#c#d#e#f#g#h#  ",
"    i#G q j#k#l#m#n#n#o#o#p#q#r#r#s#t#u#v#w#x#y#z#A#B#C#D#E#    ",
"    F#G#X Y H#I#J#K#L#M#N#O#P#Q#R#S#T#U#V#W#X#Y#Z#`# $D#.$+$    ",
"      @$&#]#Z #$4.5.!.6.$$%$&$*$=$-$;$>$,$'$<#B@,#)$!$~${$      ",
"      ]$^$'./$).5.6.6.O@($_$:$9#<$;#T@[$}$W@X@,#)$D#~$|$1$      ",
"        2$3$o./#6.$$O@4$5$:$R@6$7$8$9$A@0$X@[#a$D#b$c$d$        ",
"          e$~.f$O@($_$5$g$h$a#T@:#i$V@B@,#'#j$!$b$c$k$          ",
"            l$m$P@5$n$R@h$;#T@U@A@}$B@,#o$p$q$r$|$d$            ",
"              s$t$g$h$a#T@u$v$A@W@X@,#f#D#w$r$x$y$              ",
"                  z$A$B$C$b#}$D$X@[#)$D#.${$E$                  ",
"                      F$G$H$I$J$Y@K$L$M$N$                      ",
"                                                                "};
