/* XPM */
static char * red_glasses_xpm[] = {
"32 32 543 2",
"  	c None",
". 	c #C7A404",
"+ 	c #C7A509",
"@ 	c #C7A508",
"# 	c #C6A202",
"$ 	c #C7A507",
"% 	c #C6A304",
"& 	c #C7A407",
"* 	c #D1B32C",
"= 	c #EBDA86",
"- 	c #F7EFBC",
"; 	c #FBF5CB",
"> 	c #FDF9D7",
", 	c #FDF8D2",
"' 	c #FAF2BB",
") 	c #F5EAA2",
"! 	c #E8D36B",
"~ 	c #D0B120",
"{ 	c #D7BD43",
"] 	c #F9F3CB",
"^ 	c #FEFBE4",
"/ 	c #FEF9CD",
"( 	c #FEF8CA",
"_ 	c #FEFAD3",
": 	c #FEF9D5",
"< 	c #FEF9D6",
"[ 	c #FEF9CA",
"} 	c #FDF6B9",
"| 	c #FDF4AA",
"1 	c #FEF6B7",
"2 	c #F5E893",
"3 	c #D3B62A",
"4 	c #C8A60B",
"5 	c #F3E9B2",
"6 	c #FFFDED",
"7 	c #FEF9D3",
"8 	c #FFFCE9",
"9 	c #FFFFFF",
"0 	c #FFFFFD",
"a 	c #FFFEF8",
"b 	c #FFFDF2",
"c 	c #FDF6B8",
"d 	c #FDF091",
"e 	c #FDF4AB",
"f 	c #ECDA6C",
"g 	c #C8A404",
"h 	c #CBAA18",
"i 	c #FBF6D9",
"j 	c #FEFBE2",
"k 	c #FFFCEA",
"l 	c #FFFEFA",
"m 	c #FFFEF5",
"n 	c #FFFDF0",
"o 	c #FFFBE3",
"p 	c #FEFADC",
"q 	c #FEF7BF",
"r 	c #FCED77",
"s 	c #FDF192",
"t 	c #F4E582",
"u 	c #C9A60B",
"v 	c #C7A50B",
"w 	c #FAF6D6",
"x 	c #FEFADD",
"y 	c #FFFEF7",
"z 	c #FFFEF4",
"A 	c #FFFCEB",
"B 	c #FEFCE6",
"C 	c #FEFBDF",
"D 	c #FEFAD7",
"E 	c #FEF9CE",
"F 	c #FEF8C4",
"G 	c #FDF4A4",
"H 	c #FCEA63",
"I 	c #FDEF83",
"J 	c #F3E47B",
"K 	c #2E3436",
"L 	c #AA9018",
"M 	c #F4ECB7",
"N 	c #FDFADD",
"O 	c #FFFEF6",
"P 	c #FFFDF4",
"Q 	c #FFFDF1",
"R 	c #FFFDEE",
"S 	c #FEFCEA",
"T 	c #FEFCE4",
"U 	c #FEFBDE",
"V 	c #FEFAD6",
"W 	c #FEF8CD",
"X 	c #FEF7C3",
"Y 	c #FDF6B7",
"Z 	c #FDF29C",
"` 	c #FCEE76",
" .	c #FCE957",
"..	c #FCEE84",
"+.	c #E9D65B",
"@.	c #B3991A",
"#.	c #464B4C",
"$.	c #2F3536",
"%.	c #353C3C",
"&.	c #8D938E",
"*.	c #BBB587",
"=.	c #D6BD46",
"-.	c #FFFCE6",
";.	c #FEFAE1",
">.	c #FFFDF3",
",.	c #FFFDEF",
"'.	c #FEFBE0",
").	c #FEFAD8",
"!.	c #FEF8CF",
"~.	c #FEF7C4",
"{.	c #FEF6B8",
"].	c #FEF4AA",
"^.	c #FDF39C",
"/.	c #FDF08D",
"(.	c #FCEE77",
"_.	c #FCEA5A",
":.	c #FBE95D",
"<.	c #F8E977",
"[.	c #CDB122",
"}.	c #C2BC8D",
"|.	c #A6ABA6",
"1.	c #383E3E",
"2.	c #69504E",
"3.	c #A17C77",
"4.	c #763232",
"5.	c #8E342B",
"6.	c #B3867C",
"7.	c #93877D",
"8.	c #A4A399",
"9.	c #9F9A90",
"0.	c #A49C92",
"a.	c #AAA99F",
"b.	c #AAA9A0",
"c.	c #B6B6AC",
"d.	c #BDBDB2",
"e.	c #5B5F5E",
"f.	c #592B2C",
"g.	c #582A2A",
"h.	c #52564F",
"i.	c #BCB990",
"j.	c #B6AF7D",
"k.	c #A9A269",
"l.	c #A8A15F",
"m.	c #A89F53",
"n.	c #9D9343",
"o.	c #857B31",
"p.	c #876027",
"q.	c #9A502B",
"r.	c #B94F4F",
"s.	c #876F70",
"t.	c #BBA5A0",
"u.	c #585D5C",
"v.	c #613B3B",
"w.	c #825655",
"x.	c #A64948",
"y.	c #9B3131",
"z.	c #A83434",
"A.	c #722C2D",
"B.	c #80292A",
"C.	c #7D2728",
"D.	c #6B1F20",
"E.	c #752221",
"F.	c #712829",
"G.	c #953F3E",
"H.	c #6A2A2B",
"I.	c #CED1CE",
"J.	c #CEC5BF",
"K.	c #C6BEB6",
"L.	c #782A2B",
"M.	c #AA3434",
"N.	c #951919",
"O.	c #791616",
"P.	c #8C1111",
"Q.	c #731717",
"R.	c #781615",
"S.	c #7C1515",
"T.	c #AA3838",
"U.	c #A53E3E",
"V.	c #882828",
"W.	c #7B2121",
"X.	c #B44E4E",
"Y.	c #B63E3E",
"Z.	c #A12D2D",
"`.	c #982525",
" +	c #891E1E",
".+	c #881818",
"++	c #801919",
"@+	c #851616",
"#+	c #801D1D",
"$+	c #771A1B",
"%+	c #6C1C1C",
"&+	c #7B807E",
"*+	c #5F2526",
"=+	c #9F6F6D",
"-+	c #B44041",
";+	c #B13B3C",
">+	c #9D2B2C",
",+	c #891718",
"'+	c #8A1010",
")+	c #8A1111",
"!+	c #7E1212",
"~+	c #952222",
"{+	c #922727",
"]+	c #6B2120",
"^+	c #621816",
"/+	c #9D3130",
"(+	c #912A2A",
"_+	c #932020",
":+	c #921E1E",
"<+	c #901919",
"[+	c #8E1414",
"}+	c #891111",
"|+	c #891010",
"1+	c #871010",
"2+	c #791516",
"3+	c #6D1717",
"4+	c #D1CEB0",
"5+	c #D1CCA6",
"6+	c #892424",
"7+	c #AC3A39",
"8+	c #B23F3E",
"9+	c #9F2C2C",
"0+	c #932322",
"a+	c #8E1716",
"b+	c #871212",
"c+	c #871111",
"d+	c #861010",
"e+	c #841010",
"f+	c #8C1515",
"g+	c #8F2121",
"h+	c #881A19",
"i+	c #B59503",
"j+	c #752726",
"k+	c #7A2525",
"l+	c #992929",
"m+	c #8B1B1B",
"n+	c #8E1B1B",
"o+	c #8D1616",
"p+	c #8C1414",
"q+	c #861212",
"r+	c #7F1010",
"s+	c #781C1B",
"t+	c #712120",
"u+	c #7A1816",
"v+	c #FEF9CF",
"w+	c #FDF7C3",
"x+	c #722722",
"y+	c #9B2C2A",
"z+	c #922825",
"A+	c #912222",
"B+	c #851C18",
"C+	c #871615",
"D+	c #851010",
"E+	c #801010",
"F+	c #741010",
"G+	c #9B2222",
"H+	c #9E3030",
"I+	c #482D04",
"J+	c #AF856F",
"K+	c #9A724C",
"L+	c #912525",
"M+	c #822A2A",
"N+	c #881B1B",
"O+	c #7F1919",
"P+	c #771615",
"Q+	c #841111",
"R+	c #712320",
"S+	c #7C332E",
"T+	c #813430",
"U+	c #B0967E",
"V+	c #FEF8C8",
"W+	c #FDF6BD",
"X+	c #B3A67A",
"Y+	c #921B1B",
"Z+	c #86211D",
"`+	c #7F291F",
" @	c #841B16",
".@	c #811111",
"+@	c #7C100F",
"@@	c #811A18",
"#@	c #B49500",
"$@	c #C5A103",
"%@	c #F6F1CB",
"&@	c #D6CD80",
"*@	c #704D3B",
"=@	c #A06E50",
"-@	c #6A231C",
";@	c #7C1614",
">@	c #8B3429",
",@	c #70231D",
"'@	c #9E8970",
")@	c #B8AF8D",
"!@	c #E6E1B4",
"~@	c #F9F3C3",
"{@	c #FDF7BF",
"]@	c #FDF5B6",
"^@	c #F8EFA8",
"/@	c #CBAB72",
"(@	c #BDA163",
"_@	c #90643E",
":@	c #8A3121",
"<@	c #882616",
"[@	c #5B0E0B",
"}@	c #70150F",
"|@	c #925C1A",
"1@	c #9A581B",
"2@	c #B0A22F",
"3@	c #E4D15B",
"4@	c #C4A100",
"5@	c #C8A407",
"6@	c #FAF2BC",
"7@	c #FCF198",
"8@	c #F0E58E",
"9@	c #E2D992",
"0@	c #DFD796",
"a@	c #CCAE7F",
"b@	c #DDD7A3",
"c@	c #E0DBA9",
"d@	c #E9E4B3",
"e@	c #F6F0BC",
"f@	c #FDF7C0",
"g@	c #FDF6BC",
"h@	c #FDF5B5",
"i@	c #FDF4AD",
"j@	c #FDF3A4",
"k@	c #FDF299",
"l@	c #F7EB89",
"m@	c #EADE79",
"n@	c #DFD36A",
"o@	c #DCCE5F",
"p@	c #DBCD54",
"q@	c #DECE4B",
"r@	c #E8D538",
"s@	c #EBD72B",
"t@	c #F0DB29",
"u@	c #F1E26F",
"v@	c #C6A300",
"w@	c #C9A609",
"x@	c #F5EAA5",
"y@	c #FDF29A",
"z@	c #FDF08E",
"A@	c #F9EC8C",
"B@	c #D3B72B",
"C@	c #FBF1A3",
"D@	c #FDF4AE",
"E@	c #FDF5B3",
"F@	c #FDF5B4",
"G@	c #FDF5AF",
"H@	c #FDF3A3",
"I@	c #FDF29B",
"J@	c #FDF191",
"K@	c #FCF088",
"L@	c #FCEE7D",
"M@	c #FCED72",
"N@	c #FCEC67",
"O@	c #FAE859",
"P@	c #D3B416",
"Q@	c #F8E33B",
"R@	c #F4DE26",
"S@	c #F2DE32",
"T@	c #EDDB5D",
"U@	c #C8A500",
"V@	c #C5A104",
"W@	c #E8D46E",
"X@	c #FDF4A9",
"Y@	c #FCEF86",
"Z@	c #CFAF1C",
"`@	c #EFDF79",
" #	c #FDF3A2",
".#	c #FDF4A7",
"+#	c #FDF39F",
"@#	c #FDF298",
"##	c #FCEF7F",
"$#	c #FCED75",
"%#	c #FCEC6B",
"&#	c #FCEB60",
"*#	c #EFD844",
"=#	c #CEAE10",
"-#	c #F6E133",
";#	c #F2DB1D",
">#	c #F3E24E",
",#	c #E1C93A",
"'#	c #C5A100",
")#	c #CFB021",
"!#	c #FEF6BA",
"~#	c #FCEF84",
"{#	c #EEDB6B",
"]#	c #C9A70D",
"^#	c #DCC343",
"/#	c #EAD666",
"(#	c #F2E27F",
"_#	c #F5E787",
":#	c #F8EB8D",
"<#	c #FAEE8F",
"[#	c #FDF193",
"}#	c #F9EB7F",
"|#	c #F7E874",
"1#	c #F4E266",
"2#	c #F2DE58",
"3#	c #E9D243",
"4#	c #DCC12D",
"5#	c #C9A70A",
"6#	c #EBD549",
"7#	c #F4DE2A",
"8#	c #F0D913",
"9#	c #F5E76F",
"0#	c #CCAD12",
"a#	c #C6A307",
"b#	c #F6EA94",
"c#	c #FDF08C",
"d#	c #FCEE79",
"e#	c #FCF085",
"f#	c #F6E88D",
"g#	c #E3CF60",
"h#	c #D8BD3E",
"i#	c #CFB023",
"j#	c #CCAC19",
"k#	c #C9A710",
"l#	c #C7A50A",
"m#	c #C4A000",
"n#	c #CCAC18",
"o#	c #CFB022",
"p#	c #D8BD3D",
"q#	c #E3CE5A",
"r#	c #F4E571",
"s#	c #F6E23E",
"t#	c #F2DB1A",
"u#	c #F1DC30",
"v#	c #EEDC57",
"w#	c #C6A200",
"x#	c #D4B528",
"y#	c #FCEC71",
"z#	c #FCED74",
"A#	c #FCEE7A",
"B#	c #FCEF88",
"C#	c #FDF5B0",
"D#	c #FEF9D0",
"E#	c #FEFADB",
"F#	c #FEFCE7",
"G#	c #FDF4A8",
"H#	c #FDF086",
"I#	c #FAE85A",
"J#	c #F6E132",
"K#	c #F3DC20",
"L#	c #EFD812",
"M#	c #F5E66C",
"N#	c #D1B114",
"O#	c #C4A206",
"P#	c #ECDB6F",
"Q#	c #FDF297",
"R#	c #FCEC6A",
"S#	c #FCEC6D",
"T#	c #FCED71",
"U#	c #FCED6F",
"V#	c #FCEB65",
"W#	c #FCEB5F",
"X#	c #FCEA58",
"Y#	c #FCE951",
"Z#	c #F9E542",
"`#	c #F3DD22",
" $	c #F0D812",
".$	c #F3E255",
"+$	c #E6D145",
"@$	c #C3A000",
"#$	c #C6A306",
"$$	c #FDF08B",
"%$	c #FCEB62",
"&$	c #FCEC68",
"*$	c #FCEC69",
"=$	c #FCEA5E",
"-$	c #FCE953",
";$	c #FBE84C",
">$	c #F9E43F",
",$	c #F6E131",
"'$	c #F0D813",
")$	c #F2E049",
"!$	c #EEDC5C",
"~$	c #C9A50C",
"{$	c #F4E686",
"]$	c #FDF190",
"^$	c #FCEB5D",
"/$	c #FCEA5C",
"($	c #FCEA5B",
"_$	c #FCEA59",
":$	c #FCE956",
"<$	c #FCE952",
"[$	c #F9E543",
"}$	c #F7E238",
"|$	c #F5DF2C",
"1$	c #F2DC1E",
"2$	c #F0D917",
"3$	c #F3E35A",
"4$	c #EEDC60",
"5$	c #C8A408",
"6$	c #C5A204",
"7$	c #EAD866",
"8$	c #FCF29B",
"9$	c #FCED70",
"0$	c #FBE84F",
"a$	c #FBE84E",
"b$	c #FBE84D",
"c$	c #FBE74A",
"d$	c #FAE645",
"e$	c #F7E237",
"f$	c #F5E02E",
"g$	c #F3DD24",
"h$	c #F1DA1A",
"i$	c #F2DF3D",
"j$	c #F5E874",
"k$	c #E5D14A",
"l$	c #C5A202",
"m$	c #C19F02",
"n$	c #D0B221",
"o$	c #F2E278",
"p$	c #FBEF90",
"q$	c #F9EA70",
"r$	c #F8E652",
"s$	c #F7E343",
"t$	c #F5E133",
"u$	c #F4DF2E",
"v$	c #F4E032",
"w$	c #F3DF39",
"x$	c #F4E354",
"y$	c #EEDB60",
"z$	c #CEB11B",
"A$	c #C09D00",
"B$	c #C3A101",
"C$	c #CDAC16",
"D$	c #E3CB47",
"E$	c #EFDF6D",
"F$	c #F4E57B",
"G$	c #F7EB87",
"H$	c #F6EA84",
"I$	c #F2E373",
"J$	c #EDDC60",
"K$	c #E0C83C",
"L$	c #CCAB13",
"M$	c #C2A000",
"N$	c #B19200",
"O$	c #C09F01",
"P$	c #C3A100",
"Q$	c #C5A000",
"R$	c #C09F00",
"                                                                ",
"                        . + @ # # $ $ %                         ",
"                    & * = - ; > , ' ) ! ~ .                     ",
"                & { ] ^ / ( _ : < [ } | 1 2 3 .                 ",
"              4 5 6 7 8 9 9 9 9 0 a b 8 c d e f g               ",
"            h i j k 9 9 9 0 l m n k o p 7 q r s t u             ",
"          v w x y 9 0 l y z n A B C D E F } G H I J .           ",
"    K K L M N z l y O P Q R S T U V W X Y e Z `  ...+.@.#.$.    ",
"  %.&.*.=.-.;.>.b Q Q n ,.A -.'.).!.~.{.].^./.(._.:.<.[.}.|.1.  ",
"  2.3.4.5.6.7.8.9.0.a.b.c.d.e.f.g.h.i.j.k.l.m.n.o.p.q.r.s.t.u.  ",
"  v.w.x.y.z.A.B.C.D.E.F.G.H.I.J.K.|.L.M.N.O.P.Q.R.S.P.T.U.V.K   ",
"    W.X.Y.Z.`. +.+++@+#+$+%+&+*+*+=+-+;+>+,+P.'+)+)+!+~+{+]+    ",
"    ^+/+(+_+:+<+[+}+|+1+2+3+P.4+5+6+7+8+9+0+a+b+c+d+e+f+g+h+    ",
"    i+j+k+l+m+n+o+p+q+r+s+t+u+v+w+x+y+z+A+B+C+q+D+E+F+G+H+I+    ",
"    i+J+K+L+M+N+O+P+Q+R+S+T+U+V+W+X+Y+Z+`+ @.@+@e+}+b+p+@@#@    ",
"    $@%@&@*@=@-@;@>@,@'@)@!@~@{@]@^@/@(@_@:@<@[@}@|@1@2@3@4@    ",
"    5@6@7@8@9@0@a@b@c@d@e@f@g@h@i@j@k@l@m@n@o@p@q@r@s@t@u@v@    ",
"    w@x@y@z@A@B@C@D@E@h@]@F@G@| H@I@J@K@L@M@N@O@P@Q@R@S@T@U@    ",
"    V@W@X@Y@z@Z@`@ #.#X@X@.#j@+#@#J@K@##$#%#&#*#=#-#;#>#,#'#    ",
"      )#!#L@~#{#]#^#/#(#_#:#<#[#/.}#|#1#2#3#4#5#6#7#8#9#0#      ",
"      a#b#c#d#e#f#g#h#i#j#k#l#m#m#l#k#n#o#p#q#r#s#t#u#v#w#      ",
"        x#| y#z#A#B#^.C#f@D#E#k n F#E#X G#H#I#J#K#L#M#N#        ",
"        O#P#Q#R#S#T#z#$#$#z#M@U#%#V#W#X#Y#Z#-#`# $.$+$@$        ",
"          #$_#$$%$V#N@&$*$N@V#%$=$_.-$;$>$,$`#'$)$!$#           ",
"            ~${$]$^$_./$/$($_$:$<$;$[$}$|$1$2$3$4$5$            ",
"              6$7$8$9$0$a$b$c$d$>$e$f$g$h$i$j$k$l$              ",
"                m$n$o$p$q$r$s$t$u$v$w$x$j$y$z$A$                ",
"                    B$C$D$E$F$G$H$I$J$K$L$M$                    ",
"                        N$O$P$Q$Q$P$R$N$                        ",
"                                                                ",
"                                                                ",
"                                                                "};
