<?xml version="1.0" encoding="UTF-8" standalone="no"?>
<!-- Created with Inkscape (http://www.inkscape.org/) -->

<svg
   xmlns:dc="http://purl.org/dc/elements/1.1/"
   xmlns:cc="http://creativecommons.org/ns#"
   xmlns:rdf="http://www.w3.org/1999/02/22-rdf-syntax-ns#"
   xmlns:svg="http://www.w3.org/2000/svg"
   xmlns="http://www.w3.org/2000/svg"
   xmlns:xlink="http://www.w3.org/1999/xlink"
   xmlns:sodipodi="http://sodipodi.sourceforge.net/DTD/sodipodi-0.dtd"
   xmlns:inkscape="http://www.inkscape.org/namespaces/inkscape"
   width="256"
   height="256"
   viewBox="0 0 256 256"
   version="1.1"
   id="svg8"
   inkscape:version="0.92.4 (5da689c313, 2019-01-14)"
   sodipodi:docname="running.svg">
  <defs
     id="defs2">
    <linearGradient
       inkscape:collect="always"
       id="linearGradient4595">
      <stop
         style="stop-color:#1a1a1a;stop-opacity:1;"
         offset="0"
         id="stop4591" />
      <stop
         style="stop-color:#616161;stop-opacity:1"
         offset="1"
         id="stop4593" />
    </linearGradient>
    <linearGradient
       inkscape:collect="always"
       id="linearGradient844">
      <stop
         style="stop-color:#6b5a08;stop-opacity:1"
         offset="0"
         id="stop840" />
      <stop
         style="stop-color:#f6e48b;stop-opacity:1"
         offset="1"
         id="stop842" />
    </linearGradient>
    <radialGradient
       inkscape:collect="always"
       xlink:href="#linearGradient844"
       id="radialGradient846"
       cx="485.71429"
       cy="671.09039"
       fx="485.71429"
       fy="671.09039"
       r="173.31749"
       gradientTransform="matrix(0.18910123,-2.55972,1.8914322,0.13973137,-1155.7596,1596.0354)"
       gradientUnits="userSpaceOnUse" />
    <linearGradient
       inkscape:collect="always"
       xlink:href="#linearGradient4595"
       id="linearGradient4597"
       x1="103.1875"
       y1="146.1875"
       x2="95.25"
       y2="138.25"
       gradientUnits="userSpaceOnUse" />
  </defs>
  <sodipodi:namedview
     id="base"
     pagecolor="#ffffff"
     bordercolor="#666666"
     borderopacity="1.0"
     inkscape:pageopacity="0.0"
     inkscape:pageshadow="2"
     inkscape:zoom="2.9438947"
     inkscape:cx="175.38848"
     inkscape:cy="128.50374"
     inkscape:document-units="px"
     inkscape:current-layer="layer1"
     showgrid="true"
     inkscape:window-width="1920"
     inkscape:window-height="984"
     inkscape:window-x="0"
     inkscape:window-y="36"
     inkscape:window-maximized="1"
     showguides="true"
     inkscape:guide-bbox="true"
     units="px">
    <inkscape:grid
       type="xygrid"
       id="grid848"
       snapvisiblegridlinesonly="false" />
  </sodipodi:namedview>
  <metadata
     id="metadata5">
    <rdf:RDF>
      <cc:Work
         rdf:about="">
        <dc:format>image/svg+xml</dc:format>
        <dc:type
           rdf:resource="http://purl.org/dc/dcmitype/StillImage" />
        <dc:title></dc:title>
      </cc:Work>
    </rdf:RDF>
  </metadata>
  <g
     inkscape:label="Layer 1"
     inkscape:groupmode="layer"
     id="layer1"
     transform="translate(0,-229.26665)">
    <path
       inkscape:connector-curvature="0"
       style="opacity:1;fill:#000000;fill-opacity:1;stroke:#000000;stroke-width:0.21228273;stroke-linecap:round;stroke-linejoin:round;stroke-miterlimit:4;stroke-dasharray:none;stroke-opacity:1;paint-order:markers fill stroke"
       d="m 224.90145,357.26665 a 96.285358,96.285358 0 0 1 -96.28538,96.28537 96.285358,96.285358 0 0 1 -96.285356,-96.28537 96.285358,96.285358 0 0 1 96.285356,-96.28537 96.285358,96.285358 0 0 1 96.28538,96.28537 z"
       id="path4553" />
    <path
       id="path837"
       d="m 212.55846,357.26665 a 83.942388,83.942388 0 0 1 -83.94239,83.94238 83.942388,83.942388 0 0 1 -83.942382,-83.94238 83.942388,83.942388 0 0 1 83.942382,-83.94238 83.942388,83.942388 0 0 1 83.94239,83.94238 z"
       style="opacity:1;fill:#e6e6e6;fill-opacity:1;stroke:#000000;stroke-width:0.18506984;stroke-linecap:round;stroke-linejoin:round;stroke-miterlimit:4;stroke-dasharray:none;stroke-opacity:1;paint-order:markers fill stroke"
       inkscape:connector-curvature="0" />
    <path
       style="opacity:1;fill:url(#radialGradient846);fill-opacity:1;stroke:#000000;stroke-width:2.74560714;stroke-linecap:round;stroke-linejoin:round;stroke-miterlimit:4;stroke-dasharray:none;stroke-opacity:1;paint-order:markers fill stroke"
       d="M 128.61609,232.73327 A 124.53289,124.53289 0 0 0 4.0838078,357.26697 124.53289,124.53289 0 0 0 128.61609,481.79926 124.53289,124.53289 0 0 0 253.14838,357.26697 124.53289,124.53289 0 0 0 128.61609,232.73327 Z m 0,28.89167 a 95.641263,95.641263 0 0 1 95.64061,95.64203 95.641263,95.641263 0 0 1 -95.64061,95.64062 95.641263,95.641263 0 0 1 -95.640613,-95.64062 95.641263,95.641263 0 0 1 95.640613,-95.64203 z"
       id="path815"
       inkscape:connector-curvature="0" />
    <g
       id="g4608"
       inkscape:transform-center-x="-18.744435"
       inkscape:transform-center-y="-26.592273"
       transform="matrix(2.7456072,0,0,2.7456072,-147.43183,-40.993448)">
      <rect
         ry="2.6458333"
         y="121.31667"
         x="97.631256"
         height="26.458332"
         width="5.2916665"
         id="rect4572"
         style="opacity:0.98000004;fill:#000000;fill-opacity:1;stroke:#000000;stroke-width:1;stroke-linecap:round;stroke-linejoin:round;stroke-miterlimit:4;stroke-dasharray:none;stroke-opacity:1;paint-order:markers fill stroke" />
      <rect
         ry="2.6458333"
         y="142.48334"
         x="97.631256"
         height="5.2916665"
         width="21.166666"
         id="rect4574"
         style="opacity:0.98000004;fill:#000000;fill-opacity:1;stroke:#000000;stroke-width:1;stroke-linecap:round;stroke-linejoin:round;stroke-miterlimit:4;stroke-dasharray:none;stroke-opacity:1;paint-order:markers fill stroke" />
      <path
         id="path4589"
         d="m 105.12766,145.05356 a 4.5860013,4.5860013 0 0 1 -4.586,4.586 4.5860013,4.5860013 0 0 1 -4.586003,-4.586 4.5860013,4.5860013 0 0 1 4.586003,-4.586 4.5860013,4.5860013 0 0 1 4.586,4.586 z"
         style="opacity:1;fill:url(#linearGradient4597);fill-opacity:1;stroke:#000000;stroke-width:0.01011087;stroke-linecap:round;stroke-linejoin:round;stroke-miterlimit:4;stroke-dasharray:none;stroke-opacity:1;paint-order:markers fill stroke"
         inkscape:connector-curvature="0" />
    </g>
  </g>
</svg>
