/* XPM */
static char * qprogram_starter_xpm[] = {
"32 32 82 1",
" 	c None",
".	c #1A0000",
"+	c #FF0000",
"@	c #BA0000",
"#	c #260000",
"$	c #150000",
"%	c #FE0000",
"&	c #1D0000",
"*	c #B30000",
"=	c #F80000",
"-	c #B90000",
";	c #000000",
">	c #1F0000",
",	c #970000",
"'	c #F10000",
")	c #360000",
"!	c #9B0000",
"~	c #190000",
"{	c #A20000",
"]	c #220000",
"^	c #AA0000",
"/	c #FB0000",
"(	c #020000",
"_	c #A30000",
":	c #410000",
"<	c #010000",
"[	c #FC0000",
"}	c #FD0000",
"|	c #460000",
"1	c #070000",
"2	c #AD0000",
"3	c #F40000",
"4	c #380000",
"5	c #A10000",
"6	c #D10000",
"7	c #6F0000",
"8	c #500000",
"9	c #EB0000",
"0	c #230000",
"a	c #990000",
"b	c #C90000",
"c	c #080000",
"d	c #880000",
"e	c #FA0000",
"f	c #DF0000",
"g	c #3A0000",
"h	c #B50000",
"i	c #C10000",
"j	c #C60000",
"k	c #B80000",
"l	c #130000",
"m	c #840000",
"n	c #450000",
"o	c #820000",
"p	c #B40000",
"q	c #BD0000",
"r	c #C00000",
"s	c #C30000",
"t	c #140000",
"u	c #BE0000",
"v	c #890000",
"w	c #F50000",
"x	c #100000",
"y	c #0B0000",
"z	c #E60000",
"A	c #C20000",
"B	c #AC0000",
"C	c #0A0000",
"D	c #950000",
"E	c #CA0000",
"F	c #600000",
"G	c #390000",
"H	c #B10000",
"I	c #F30000",
"J	c #3F0000",
"K	c #750000",
"L	c #5B0000",
"M	c #A00000",
"N	c #160000",
"O	c #180000",
"P	c #910000",
"Q	c #170000",
"                                ",
"  .+++++++++++++++++++++++++@#  ",
" $+%+++++++++++++++++++++++%%+& ",
" *+%++++++++++++++++++++++++=+- ",
" +++;;;;;;;;;;;;>;;;;;;;;;;;+%+ ",
" +++;;;;;;;;;;;,');;;;;;;;;;+++ ",
" +++;;;;;;;;;;!+%+~;;;;;;;;;+++ ",
" +++;;;;;;;;;{+%%%+];;;;;;;;+++ ",
" +++;;;;;;;;^++%%%/+](;;;;;;+++ ",
" +++;;;;;;;_+%+++%+%/:<;;;;;+++ ",
" +++;;;;;;,+[%}+%%%%%+|1;;;;+++ ",
" +++;;;;;2+%++++3+}%+%+4;;;;+++ ",
" +++;;;;5+%%%+67;89+}+}+0;<;+++ ",
" +++;;;a+}%}+bc;;;<d++}%+);;+++ ",
" +++;;_+e+%%}>;;;;;<f+%%}+g(+++ ",
" +++;h++++++i;jkkk-lm++++++n+++ ",
" +++;;;;;;o+p;@qrkstm+u;;;;;+++ ",
" +++;;;;;;v+wx;;;;;yz%A;;;;;+++ ",
" +++;;;;;;v++BC;;;(D%+A;;;;;+++ ",
" +++;;;;;;v+%+EF;GH+}+A;;;;;+++ ",
" +++;;;;;;v+%++}Ie+}+%A;;;;;+++ ",
" +++;;;;;;v+++%%%+%+%+A;;;;;+++ ",
" +++;;;;;;v++++++++%++A;;;;;+++ ",
" +++;;;;;;v+++++++++++A;;;;;+++ ",
" +++;;;;;;v+++++++++++A;;;;;+++ ",
" +++;;;;;;v+++++++++++A;;;;;+++ ",
" +++;;;;;;JKKKKKKKKKKKL;;;;;+++ ",
" +%+;;;;;;;;;;;;;;;;;;;;;;;;+++ ",
" M+%++++++++++++++++++++++++%%^ ",
" N++%+++++++++++++++++++++++}+O ",
"  NP+++++++++++++++++++++++++Q  ",
"                                "};
